<mxfile host="app.diagrams.net" modified="2023-06-09T15:47:36.271Z" agent="Mozilla/5.0 (Windows NT 10.0; Win64; x64) AppleWebKit/537.36 (KHTML, like Gecko) Chrome/114.0.0.0 Safari/537.36" etag="KujYMp-kX_9J1TAVZayR" version="21.3.7" type="github">
  <diagram id="C5RBs43oDa-KdzZeNtuy" name="Page-1">
    <mxGraphModel dx="1434" dy="743" grid="1" gridSize="10" guides="1" tooltips="1" connect="1" arrows="1" fold="1" page="1" pageScale="1" pageWidth="827" pageHeight="1169" math="0" shadow="0">
      <root>
        <mxCell id="WIyWlLk6GJQsqaUBKTNV-0" />
        <mxCell id="WIyWlLk6GJQsqaUBKTNV-1" parent="WIyWlLk6GJQsqaUBKTNV-0" />
        <mxCell id="PX37swh3ARrqR0duOcls-11" style="edgeStyle=orthogonalEdgeStyle;rounded=0;orthogonalLoop=1;jettySize=auto;html=1;exitX=1;exitY=0.5;exitDx=0;exitDy=0;entryX=0;entryY=0.5;entryDx=0;entryDy=0;" edge="1" parent="WIyWlLk6GJQsqaUBKTNV-1" source="PX37swh3ARrqR0duOcls-0" target="PX37swh3ARrqR0duOcls-10">
          <mxGeometry relative="1" as="geometry" />
        </mxCell>
        <mxCell id="PX37swh3ARrqR0duOcls-0" value="Front End React Site" style="rounded=0;whiteSpace=wrap;html=1;" vertex="1" parent="WIyWlLk6GJQsqaUBKTNV-1">
          <mxGeometry x="130" y="580" width="120" height="60" as="geometry" />
        </mxCell>
        <mxCell id="PX37swh3ARrqR0duOcls-1" value="Main Database&lt;br&gt;(MySQL)" style="shape=cylinder3;whiteSpace=wrap;html=1;boundedLbl=1;backgroundOutline=1;size=15;" vertex="1" parent="WIyWlLk6GJQsqaUBKTNV-1">
          <mxGeometry x="530" y="730" width="60" height="80" as="geometry" />
        </mxCell>
        <mxCell id="PX37swh3ARrqR0duOcls-23" style="edgeStyle=orthogonalEdgeStyle;rounded=0;orthogonalLoop=1;jettySize=auto;html=1;exitX=0.875;exitY=0.5;exitDx=0;exitDy=0;exitPerimeter=0;" edge="1" parent="WIyWlLk6GJQsqaUBKTNV-1" source="PX37swh3ARrqR0duOcls-2" target="PX37swh3ARrqR0duOcls-22">
          <mxGeometry relative="1" as="geometry" />
        </mxCell>
        <mxCell id="PX37swh3ARrqR0duOcls-2" value="Twitch" style="ellipse;shape=cloud;whiteSpace=wrap;html=1;" vertex="1" parent="WIyWlLk6GJQsqaUBKTNV-1">
          <mxGeometry x="260" y="110" width="120" height="80" as="geometry" />
        </mxCell>
        <mxCell id="PX37swh3ARrqR0duOcls-19" style="edgeStyle=orthogonalEdgeStyle;rounded=0;orthogonalLoop=1;jettySize=auto;html=1;exitX=0.4;exitY=0.1;exitDx=0;exitDy=0;exitPerimeter=0;entryX=0.55;entryY=0.95;entryDx=0;entryDy=0;entryPerimeter=0;" edge="1" parent="WIyWlLk6GJQsqaUBKTNV-1" source="PX37swh3ARrqR0duOcls-3" target="PX37swh3ARrqR0duOcls-2">
          <mxGeometry relative="1" as="geometry" />
        </mxCell>
        <mxCell id="PX37swh3ARrqR0duOcls-3" value="Auth0" style="ellipse;shape=cloud;whiteSpace=wrap;html=1;" vertex="1" parent="WIyWlLk6GJQsqaUBKTNV-1">
          <mxGeometry x="280" y="350" width="120" height="80" as="geometry" />
        </mxCell>
        <mxCell id="PX37swh3ARrqR0duOcls-21" style="edgeStyle=orthogonalEdgeStyle;rounded=0;orthogonalLoop=1;jettySize=auto;html=1;exitX=0;exitY=0.3333333333333333;exitDx=0;exitDy=0;exitPerimeter=0;entryX=0.625;entryY=0.2;entryDx=0;entryDy=0;entryPerimeter=0;" edge="1" parent="WIyWlLk6GJQsqaUBKTNV-1" source="PX37swh3ARrqR0duOcls-4" target="PX37swh3ARrqR0duOcls-2">
          <mxGeometry relative="1" as="geometry" />
        </mxCell>
        <mxCell id="PX37swh3ARrqR0duOcls-4" value="Justin - Viewer" style="shape=umlActor;verticalLabelPosition=bottom;verticalAlign=top;html=1;outlineConnect=0;" vertex="1" parent="WIyWlLk6GJQsqaUBKTNV-1">
          <mxGeometry x="750" y="100" width="30" height="60" as="geometry" />
        </mxCell>
        <mxCell id="PX37swh3ARrqR0duOcls-8" style="edgeStyle=orthogonalEdgeStyle;rounded=0;orthogonalLoop=1;jettySize=auto;html=1;exitX=0.5;exitY=1;exitDx=0;exitDy=0;entryX=0.5;entryY=0;entryDx=0;entryDy=0;entryPerimeter=0;" edge="1" parent="WIyWlLk6GJQsqaUBKTNV-1" source="PX37swh3ARrqR0duOcls-7" target="PX37swh3ARrqR0duOcls-1">
          <mxGeometry relative="1" as="geometry" />
        </mxCell>
        <mxCell id="PX37swh3ARrqR0duOcls-15" style="edgeStyle=orthogonalEdgeStyle;rounded=0;orthogonalLoop=1;jettySize=auto;html=1;exitX=0;exitY=0;exitDx=0;exitDy=0;entryX=0.8;entryY=0.8;entryDx=0;entryDy=0;entryPerimeter=0;" edge="1" parent="WIyWlLk6GJQsqaUBKTNV-1" source="PX37swh3ARrqR0duOcls-7" target="PX37swh3ARrqR0duOcls-3">
          <mxGeometry relative="1" as="geometry">
            <Array as="points">
              <mxPoint x="500" y="420" />
              <mxPoint x="376" y="420" />
            </Array>
          </mxGeometry>
        </mxCell>
        <mxCell id="PX37swh3ARrqR0duOcls-16" value="Check auth&lt;br&gt;" style="edgeLabel;html=1;align=center;verticalAlign=middle;resizable=0;points=[];" vertex="1" connectable="0" parent="PX37swh3ARrqR0duOcls-15">
          <mxGeometry x="0.2798" y="3" relative="1" as="geometry">
            <mxPoint as="offset" />
          </mxGeometry>
        </mxCell>
        <mxCell id="PX37swh3ARrqR0duOcls-26" style="edgeStyle=orthogonalEdgeStyle;rounded=0;orthogonalLoop=1;jettySize=auto;html=1;exitX=1;exitY=0.25;exitDx=0;exitDy=0;entryX=0;entryY=0.5;entryDx=0;entryDy=0;entryPerimeter=0;" edge="1" parent="WIyWlLk6GJQsqaUBKTNV-1" source="PX37swh3ARrqR0duOcls-7" target="PX37swh3ARrqR0duOcls-24">
          <mxGeometry relative="1" as="geometry" />
        </mxCell>
        <mxCell id="PX37swh3ARrqR0duOcls-7" value="OtterlyApps API&lt;br&gt;(.net6)" style="rounded=0;whiteSpace=wrap;html=1;" vertex="1" parent="WIyWlLk6GJQsqaUBKTNV-1">
          <mxGeometry x="500" y="580" width="120" height="60" as="geometry" />
        </mxCell>
        <mxCell id="PX37swh3ARrqR0duOcls-12" style="edgeStyle=orthogonalEdgeStyle;rounded=0;orthogonalLoop=1;jettySize=auto;html=1;exitX=0.5;exitY=0;exitDx=0;exitDy=0;entryX=0.55;entryY=0.95;entryDx=0;entryDy=0;entryPerimeter=0;" edge="1" parent="WIyWlLk6GJQsqaUBKTNV-1" source="PX37swh3ARrqR0duOcls-10" target="PX37swh3ARrqR0duOcls-3">
          <mxGeometry relative="1" as="geometry" />
        </mxCell>
        <mxCell id="PX37swh3ARrqR0duOcls-13" value="Login Process" style="edgeLabel;html=1;align=center;verticalAlign=middle;resizable=0;points=[];" vertex="1" connectable="0" parent="PX37swh3ARrqR0duOcls-12">
          <mxGeometry x="0.2375" y="2" relative="1" as="geometry">
            <mxPoint as="offset" />
          </mxGeometry>
        </mxCell>
        <mxCell id="PX37swh3ARrqR0duOcls-14" style="edgeStyle=orthogonalEdgeStyle;rounded=0;orthogonalLoop=1;jettySize=auto;html=1;exitX=1;exitY=0.5;exitDx=0;exitDy=0;entryX=0;entryY=0.5;entryDx=0;entryDy=0;" edge="1" parent="WIyWlLk6GJQsqaUBKTNV-1" source="PX37swh3ARrqR0duOcls-10" target="PX37swh3ARrqR0duOcls-7">
          <mxGeometry relative="1" as="geometry" />
        </mxCell>
        <mxCell id="PX37swh3ARrqR0duOcls-10" value="BackendForFrontend&lt;br&gt;BFF&lt;br&gt;(.net 6)" style="rounded=0;whiteSpace=wrap;html=1;" vertex="1" parent="WIyWlLk6GJQsqaUBKTNV-1">
          <mxGeometry x="294" y="580" width="120" height="60" as="geometry" />
        </mxCell>
        <mxCell id="PX37swh3ARrqR0duOcls-18" style="edgeStyle=orthogonalEdgeStyle;rounded=0;orthogonalLoop=1;jettySize=auto;html=1;exitX=1;exitY=0.3333333333333333;exitDx=0;exitDy=0;exitPerimeter=0;" edge="1" parent="WIyWlLk6GJQsqaUBKTNV-1" source="PX37swh3ARrqR0duOcls-17" target="PX37swh3ARrqR0duOcls-0">
          <mxGeometry relative="1" as="geometry" />
        </mxCell>
        <mxCell id="PX37swh3ARrqR0duOcls-17" value="Lucy - Streamer" style="shape=umlActor;verticalLabelPosition=bottom;verticalAlign=top;html=1;outlineConnect=0;" vertex="1" parent="WIyWlLk6GJQsqaUBKTNV-1">
          <mxGeometry x="40" y="580" width="30" height="60" as="geometry" />
        </mxCell>
        <mxCell id="PX37swh3ARrqR0duOcls-25" style="edgeStyle=orthogonalEdgeStyle;rounded=0;orthogonalLoop=1;jettySize=auto;html=1;exitX=0.5;exitY=1;exitDx=0;exitDy=0;" edge="1" parent="WIyWlLk6GJQsqaUBKTNV-1" source="PX37swh3ARrqR0duOcls-22" target="PX37swh3ARrqR0duOcls-7">
          <mxGeometry relative="1" as="geometry" />
        </mxCell>
        <mxCell id="PX37swh3ARrqR0duOcls-22" value="TwitchAddOn&lt;br&gt;(react)" style="rounded=0;whiteSpace=wrap;html=1;" vertex="1" parent="WIyWlLk6GJQsqaUBKTNV-1">
          <mxGeometry x="520" y="220" width="120" height="60" as="geometry" />
        </mxCell>
        <mxCell id="PX37swh3ARrqR0duOcls-24" value="Activity&lt;br&gt;Database&lt;br&gt;(MongoDB)" style="shape=cylinder3;whiteSpace=wrap;html=1;boundedLbl=1;backgroundOutline=1;size=15;" vertex="1" parent="WIyWlLk6GJQsqaUBKTNV-1">
          <mxGeometry x="690" y="460" width="80" height="100" as="geometry" />
        </mxCell>
      </root>
    </mxGraphModel>
  </diagram>
</mxfile>
